<mxfile host="app.diagrams.net" modified="2024-03-27T12:04:44.776Z" agent="Mozilla/5.0 (Windows NT 10.0; Win64; x64) AppleWebKit/537.36 (KHTML, like Gecko) Chrome/120.0.0.0 YaBrowser/24.1.0.0 Safari/537.36" etag="1ERSGcldkEdn2VtWpZLV" version="24.1.0" type="device">
  <diagram name="Страница — 1" id="DeD0USFj46UxaElE_X4K">
    <mxGraphModel dx="1179" dy="639" grid="1" gridSize="10" guides="1" tooltips="1" connect="1" arrows="1" fold="1" page="1" pageScale="1" pageWidth="827" pageHeight="1169" math="0" shadow="0">
      <root>
        <mxCell id="0" />
        <mxCell id="1" parent="0" />
        <mxCell id="30SJ4tuJa1_lTZHpDqGf-4" value="БД пациентов" style="rounded=0;whiteSpace=wrap;html=1;" parent="1" vertex="1">
          <mxGeometry x="520" y="40" width="80" height="40" as="geometry" />
        </mxCell>
        <mxCell id="30SJ4tuJa1_lTZHpDqGf-5" value="Расписание врачей" style="rounded=0;whiteSpace=wrap;html=1;" parent="1" vertex="1">
          <mxGeometry x="720" y="40" width="80" height="40" as="geometry" />
        </mxCell>
        <mxCell id="30SJ4tuJa1_lTZHpDqGf-9" value="" style="endArrow=none;dashed=1;html=1;rounded=0;" parent="1" target="30SJ4tuJa1_lTZHpDqGf-35" edge="1" source="gwRPoFjmvg8aq_oQ4cy_-24">
          <mxGeometry width="50" height="50" relative="1" as="geometry">
            <mxPoint x="180" y="800" as="sourcePoint" />
            <mxPoint x="160" y="80" as="targetPoint" />
          </mxGeometry>
        </mxCell>
        <mxCell id="30SJ4tuJa1_lTZHpDqGf-12" value="" style="endArrow=none;dashed=1;html=1;rounded=0;" parent="1" source="SehGU1X1EMtwn5SKbgx--51" target="30SJ4tuJa1_lTZHpDqGf-32" edge="1">
          <mxGeometry width="50" height="50" relative="1" as="geometry">
            <mxPoint x="35" y="800" as="sourcePoint" />
            <mxPoint x="30" y="130" as="targetPoint" />
          </mxGeometry>
        </mxCell>
        <mxCell id="30SJ4tuJa1_lTZHpDqGf-14" value="" style="endArrow=none;dashed=1;html=1;rounded=0;entryX=0.5;entryY=1;entryDx=0;entryDy=0;" parent="1" target="30SJ4tuJa1_lTZHpDqGf-4" edge="1" source="gwRPoFjmvg8aq_oQ4cy_-8">
          <mxGeometry width="50" height="50" relative="1" as="geometry">
            <mxPoint x="560" y="801.5999755859375" as="sourcePoint" />
            <mxPoint x="560" y="100" as="targetPoint" />
          </mxGeometry>
        </mxCell>
        <mxCell id="30SJ4tuJa1_lTZHpDqGf-15" value="" style="endArrow=none;dashed=1;html=1;rounded=0;entryX=0.5;entryY=1;entryDx=0;entryDy=0;" parent="1" target="30SJ4tuJa1_lTZHpDqGf-5" edge="1" source="gwRPoFjmvg8aq_oQ4cy_-11">
          <mxGeometry width="50" height="50" relative="1" as="geometry">
            <mxPoint x="760" y="801.5999755859375" as="sourcePoint" />
            <mxPoint x="760" y="110" as="targetPoint" />
          </mxGeometry>
        </mxCell>
        <mxCell id="30SJ4tuJa1_lTZHpDqGf-32" value="пациент" style="shape=umlActor;verticalLabelPosition=bottom;verticalAlign=top;html=1;outlineConnect=0;" parent="1" vertex="1">
          <mxGeometry x="20" y="20" width="30" height="60" as="geometry" />
        </mxCell>
        <mxCell id="30SJ4tuJa1_lTZHpDqGf-35" value="Регистратор" style="shape=umlActor;verticalLabelPosition=bottom;verticalAlign=top;html=1;outlineConnect=0;" parent="1" vertex="1">
          <mxGeometry x="170" y="20" width="30" height="60" as="geometry" />
        </mxCell>
        <mxCell id="SehGU1X1EMtwn5SKbgx--7" value="" style="endArrow=none;dashed=1;html=1;rounded=0;" parent="1" edge="1" source="gwRPoFjmvg8aq_oQ4cy_-61">
          <mxGeometry width="50" height="50" relative="1" as="geometry">
            <mxPoint x="360" y="801.5999755859375" as="sourcePoint" />
            <mxPoint x="360" y="100" as="targetPoint" />
          </mxGeometry>
        </mxCell>
        <mxCell id="SehGU1X1EMtwn5SKbgx--45" value="врач" style="shape=umlActor;verticalLabelPosition=bottom;verticalAlign=top;html=1;outlineConnect=0;" parent="1" vertex="1">
          <mxGeometry x="340" y="20" width="30" height="60" as="geometry" />
        </mxCell>
        <mxCell id="SehGU1X1EMtwn5SKbgx--48" value="система оплаты" style="rounded=0;whiteSpace=wrap;html=1;" parent="1" vertex="1">
          <mxGeometry x="970" y="40" width="80" height="40" as="geometry" />
        </mxCell>
        <mxCell id="SehGU1X1EMtwn5SKbgx--49" value="" style="endArrow=none;dashed=1;html=1;rounded=0;entryX=0.5;entryY=1;entryDx=0;entryDy=0;" parent="1" edge="1" source="gwRPoFjmvg8aq_oQ4cy_-43">
          <mxGeometry width="50" height="50" relative="1" as="geometry">
            <mxPoint x="1009.5" y="801.5999755859375" as="sourcePoint" />
            <mxPoint x="1009.5" y="80" as="targetPoint" />
          </mxGeometry>
        </mxCell>
        <mxCell id="SehGU1X1EMtwn5SKbgx--52" value="" style="endArrow=none;dashed=1;html=1;rounded=0;" parent="1" target="SehGU1X1EMtwn5SKbgx--51" edge="1" source="gwRPoFjmvg8aq_oQ4cy_-16">
          <mxGeometry width="50" height="50" relative="1" as="geometry">
            <mxPoint x="35" y="800" as="sourcePoint" />
            <mxPoint x="35" y="80" as="targetPoint" />
          </mxGeometry>
        </mxCell>
        <mxCell id="SehGU1X1EMtwn5SKbgx--51" value="" style="rounded=0;whiteSpace=wrap;html=1;" parent="1" vertex="1">
          <mxGeometry x="20" y="120" width="30" height="120" as="geometry" />
        </mxCell>
        <mxCell id="SehGU1X1EMtwn5SKbgx--53" value="" style="rounded=0;whiteSpace=wrap;html=1;" parent="1" vertex="1">
          <mxGeometry x="170" y="120" width="30" height="120" as="geometry" />
        </mxCell>
        <mxCell id="SehGU1X1EMtwn5SKbgx--54" value="" style="endArrow=classic;html=1;rounded=0;entryX=0.059;entryY=0.077;entryDx=0;entryDy=0;entryPerimeter=0;" parent="1" target="SehGU1X1EMtwn5SKbgx--53" edge="1">
          <mxGeometry width="50" height="50" relative="1" as="geometry">
            <mxPoint x="50" y="130" as="sourcePoint" />
            <mxPoint x="160" y="130" as="targetPoint" />
          </mxGeometry>
        </mxCell>
        <mxCell id="gwRPoFjmvg8aq_oQ4cy_-3" value="запрос на регистрацию" style="edgeLabel;html=1;align=center;verticalAlign=middle;resizable=0;points=[];" vertex="1" connectable="0" parent="SehGU1X1EMtwn5SKbgx--54">
          <mxGeometry x="-0.0722" y="1" relative="1" as="geometry">
            <mxPoint y="-10" as="offset" />
          </mxGeometry>
        </mxCell>
        <mxCell id="gwRPoFjmvg8aq_oQ4cy_-1" style="edgeStyle=none;curved=1;rounded=0;orthogonalLoop=1;jettySize=auto;html=1;entryX=0.955;entryY=0.83;entryDx=0;entryDy=0;fontSize=12;startSize=8;endSize=8;dashed=1;exitX=0.083;exitY=0.859;exitDx=0;exitDy=0;exitPerimeter=0;entryPerimeter=0;" edge="1" parent="1">
          <mxGeometry relative="1" as="geometry">
            <mxPoint x="170" y="223.08000000000004" as="sourcePoint" />
            <mxPoint x="46.159999999999975" y="219.60000000000002" as="targetPoint" />
          </mxGeometry>
        </mxCell>
        <mxCell id="gwRPoFjmvg8aq_oQ4cy_-15" value="пациент зарегистрирован" style="edgeLabel;html=1;align=center;verticalAlign=middle;resizable=0;points=[];" vertex="1" connectable="0" parent="gwRPoFjmvg8aq_oQ4cy_-1">
          <mxGeometry x="-0.2761" y="-3" relative="1" as="geometry">
            <mxPoint y="-12" as="offset" />
          </mxGeometry>
        </mxCell>
        <mxCell id="gwRPoFjmvg8aq_oQ4cy_-5" value="" style="endArrow=classic;html=1;rounded=0;entryX=1;entryY=0.5;entryDx=0;entryDy=0;exitX=0;exitY=0.5;exitDx=0;exitDy=0;" edge="1" parent="1" source="SehGU1X1EMtwn5SKbgx--53" target="SehGU1X1EMtwn5SKbgx--51">
          <mxGeometry width="50" height="50" relative="1" as="geometry">
            <mxPoint x="370" y="290" as="sourcePoint" />
            <mxPoint x="420" y="240" as="targetPoint" />
          </mxGeometry>
        </mxCell>
        <mxCell id="gwRPoFjmvg8aq_oQ4cy_-6" value="регистрация" style="edgeLabel;html=1;align=center;verticalAlign=middle;resizable=0;points=[];" vertex="1" connectable="0" parent="gwRPoFjmvg8aq_oQ4cy_-5">
          <mxGeometry x="-0.0442" y="-4" relative="1" as="geometry">
            <mxPoint as="offset" />
          </mxGeometry>
        </mxCell>
        <mxCell id="gwRPoFjmvg8aq_oQ4cy_-7" value="" style="endArrow=classic;html=1;rounded=0;entryX=0;entryY=0.25;entryDx=0;entryDy=0;exitX=1.057;exitY=0.17;exitDx=0;exitDy=0;exitPerimeter=0;" edge="1" parent="1" source="SehGU1X1EMtwn5SKbgx--53" target="gwRPoFjmvg8aq_oQ4cy_-8">
          <mxGeometry width="50" height="50" relative="1" as="geometry">
            <mxPoint x="190" y="150" as="sourcePoint" />
            <mxPoint x="540" y="170" as="targetPoint" />
          </mxGeometry>
        </mxCell>
        <mxCell id="gwRPoFjmvg8aq_oQ4cy_-10" value="внесение информации о пациенте" style="edgeLabel;html=1;align=center;verticalAlign=middle;resizable=0;points=[];" vertex="1" connectable="0" parent="gwRPoFjmvg8aq_oQ4cy_-7">
          <mxGeometry x="0.1067" y="3" relative="1" as="geometry">
            <mxPoint as="offset" />
          </mxGeometry>
        </mxCell>
        <mxCell id="gwRPoFjmvg8aq_oQ4cy_-9" value="" style="endArrow=none;dashed=1;html=1;rounded=0;entryX=0.5;entryY=1;entryDx=0;entryDy=0;" edge="1" parent="1" source="gwRPoFjmvg8aq_oQ4cy_-57" target="gwRPoFjmvg8aq_oQ4cy_-8">
          <mxGeometry width="50" height="50" relative="1" as="geometry">
            <mxPoint x="560" y="801.5999755859375" as="sourcePoint" />
            <mxPoint x="560" y="80" as="targetPoint" />
          </mxGeometry>
        </mxCell>
        <mxCell id="gwRPoFjmvg8aq_oQ4cy_-8" value="" style="rounded=0;whiteSpace=wrap;html=1;" vertex="1" parent="1">
          <mxGeometry x="545" y="130" width="30" height="60" as="geometry" />
        </mxCell>
        <mxCell id="gwRPoFjmvg8aq_oQ4cy_-12" value="" style="endArrow=none;dashed=1;html=1;rounded=0;entryX=0.5;entryY=1;entryDx=0;entryDy=0;" edge="1" parent="1" source="gwRPoFjmvg8aq_oQ4cy_-30" target="gwRPoFjmvg8aq_oQ4cy_-11">
          <mxGeometry width="50" height="50" relative="1" as="geometry">
            <mxPoint x="760" y="801.5999755859375" as="sourcePoint" />
            <mxPoint x="760" y="80" as="targetPoint" />
          </mxGeometry>
        </mxCell>
        <mxCell id="gwRPoFjmvg8aq_oQ4cy_-11" value="" style="rounded=0;whiteSpace=wrap;html=1;" vertex="1" parent="1">
          <mxGeometry x="745" y="120" width="30" height="60" as="geometry" />
        </mxCell>
        <mxCell id="gwRPoFjmvg8aq_oQ4cy_-13" style="edgeStyle=none;curved=1;rounded=0;orthogonalLoop=1;jettySize=auto;html=1;entryX=1;entryY=0.75;entryDx=0;entryDy=0;fontSize=12;startSize=8;endSize=8;dashed=1;" edge="1" parent="1">
          <mxGeometry relative="1" as="geometry">
            <mxPoint x="540" y="180" as="sourcePoint" />
            <mxPoint x="200" y="180" as="targetPoint" />
          </mxGeometry>
        </mxCell>
        <mxCell id="gwRPoFjmvg8aq_oQ4cy_-14" value="информация внесена" style="edgeLabel;html=1;align=center;verticalAlign=middle;resizable=0;points=[];" vertex="1" connectable="0" parent="gwRPoFjmvg8aq_oQ4cy_-13">
          <mxGeometry x="0.276" y="-1" relative="1" as="geometry">
            <mxPoint as="offset" />
          </mxGeometry>
        </mxCell>
        <mxCell id="gwRPoFjmvg8aq_oQ4cy_-17" value="" style="endArrow=none;dashed=1;html=1;rounded=0;" edge="1" parent="1" target="gwRPoFjmvg8aq_oQ4cy_-16">
          <mxGeometry width="50" height="50" relative="1" as="geometry">
            <mxPoint x="35" y="800" as="sourcePoint" />
            <mxPoint x="35" y="240" as="targetPoint" />
          </mxGeometry>
        </mxCell>
        <mxCell id="gwRPoFjmvg8aq_oQ4cy_-16" value="" style="rounded=0;whiteSpace=wrap;html=1;" vertex="1" parent="1">
          <mxGeometry x="20" y="270" width="30" height="200" as="geometry" />
        </mxCell>
        <mxCell id="gwRPoFjmvg8aq_oQ4cy_-25" value="" style="endArrow=none;dashed=1;html=1;rounded=0;" edge="1" parent="1" target="gwRPoFjmvg8aq_oQ4cy_-24">
          <mxGeometry width="50" height="50" relative="1" as="geometry">
            <mxPoint x="190" y="800" as="sourcePoint" />
            <mxPoint x="185" y="80" as="targetPoint" />
          </mxGeometry>
        </mxCell>
        <mxCell id="gwRPoFjmvg8aq_oQ4cy_-51" style="edgeStyle=orthogonalEdgeStyle;rounded=0;orthogonalLoop=1;jettySize=auto;html=1;exitX=0.5;exitY=1;exitDx=0;exitDy=0;" edge="1" parent="1" source="gwRPoFjmvg8aq_oQ4cy_-24">
          <mxGeometry relative="1" as="geometry">
            <mxPoint x="184.6521739130435" y="469.73913043478274" as="targetPoint" />
          </mxGeometry>
        </mxCell>
        <mxCell id="gwRPoFjmvg8aq_oQ4cy_-24" value="" style="rounded=0;whiteSpace=wrap;html=1;" vertex="1" parent="1">
          <mxGeometry x="170" y="260" width="30" height="400" as="geometry" />
        </mxCell>
        <mxCell id="gwRPoFjmvg8aq_oQ4cy_-28" value="" style="endArrow=classic;html=1;rounded=0;entryX=0.059;entryY=0.077;entryDx=0;entryDy=0;entryPerimeter=0;" edge="1" parent="1">
          <mxGeometry width="50" height="50" relative="1" as="geometry">
            <mxPoint x="48" y="291" as="sourcePoint" />
            <mxPoint x="170" y="290" as="targetPoint" />
          </mxGeometry>
        </mxCell>
        <mxCell id="gwRPoFjmvg8aq_oQ4cy_-29" value="запрос на запись к врачу" style="edgeLabel;html=1;align=center;verticalAlign=middle;resizable=0;points=[];" vertex="1" connectable="0" parent="gwRPoFjmvg8aq_oQ4cy_-28">
          <mxGeometry x="-0.0722" y="1" relative="1" as="geometry">
            <mxPoint y="-10" as="offset" />
          </mxGeometry>
        </mxCell>
        <mxCell id="gwRPoFjmvg8aq_oQ4cy_-31" value="" style="endArrow=none;dashed=1;html=1;rounded=0;entryX=0.5;entryY=1;entryDx=0;entryDy=0;" edge="1" parent="1" target="gwRPoFjmvg8aq_oQ4cy_-30">
          <mxGeometry width="50" height="50" relative="1" as="geometry">
            <mxPoint x="760" y="801.5999755859375" as="sourcePoint" />
            <mxPoint x="760" y="180" as="targetPoint" />
          </mxGeometry>
        </mxCell>
        <mxCell id="gwRPoFjmvg8aq_oQ4cy_-30" value="" style="rounded=0;whiteSpace=wrap;html=1;" vertex="1" parent="1">
          <mxGeometry x="745" y="260" width="30" height="50" as="geometry" />
        </mxCell>
        <mxCell id="gwRPoFjmvg8aq_oQ4cy_-32" value="" style="endArrow=classic;html=1;rounded=0;exitX=1.126;exitY=0.047;exitDx=0;exitDy=0;exitPerimeter=0;entryX=0.093;entryY=0.376;entryDx=0;entryDy=0;entryPerimeter=0;" edge="1" parent="1" source="gwRPoFjmvg8aq_oQ4cy_-24" target="gwRPoFjmvg8aq_oQ4cy_-30">
          <mxGeometry width="50" height="50" relative="1" as="geometry">
            <mxPoint x="200" y="281" as="sourcePoint" />
            <mxPoint x="740" y="280" as="targetPoint" />
          </mxGeometry>
        </mxCell>
        <mxCell id="gwRPoFjmvg8aq_oQ4cy_-33" value="просмотр свободных окон" style="edgeLabel;html=1;align=center;verticalAlign=middle;resizable=0;points=[];" vertex="1" connectable="0" parent="gwRPoFjmvg8aq_oQ4cy_-32">
          <mxGeometry x="-0.0722" y="1" relative="1" as="geometry">
            <mxPoint y="-10" as="offset" />
          </mxGeometry>
        </mxCell>
        <mxCell id="gwRPoFjmvg8aq_oQ4cy_-37" style="edgeStyle=none;curved=1;rounded=0;orthogonalLoop=1;jettySize=auto;html=1;fontSize=12;startSize=8;endSize=8;dashed=1;entryX=1.149;entryY=0.136;entryDx=0;entryDy=0;entryPerimeter=0;" edge="1" parent="1" target="gwRPoFjmvg8aq_oQ4cy_-24">
          <mxGeometry relative="1" as="geometry">
            <mxPoint x="750" y="310" as="sourcePoint" />
            <mxPoint x="190" y="310" as="targetPoint" />
          </mxGeometry>
        </mxCell>
        <mxCell id="gwRPoFjmvg8aq_oQ4cy_-38" value="получение информации о свободных окнах" style="edgeLabel;html=1;align=center;verticalAlign=middle;resizable=0;points=[];" vertex="1" connectable="0" parent="gwRPoFjmvg8aq_oQ4cy_-37">
          <mxGeometry x="0.276" y="-1" relative="1" as="geometry">
            <mxPoint as="offset" />
          </mxGeometry>
        </mxCell>
        <mxCell id="gwRPoFjmvg8aq_oQ4cy_-39" style="edgeStyle=none;curved=1;rounded=0;orthogonalLoop=1;jettySize=auto;html=1;fontSize=12;startSize=8;endSize=8;dashed=1;exitX=0.059;exitY=0.146;exitDx=0;exitDy=0;exitPerimeter=0;" edge="1" parent="1" source="gwRPoFjmvg8aq_oQ4cy_-24">
          <mxGeometry relative="1" as="geometry">
            <mxPoint x="590" y="319.57" as="sourcePoint" />
            <mxPoint x="50" y="320" as="targetPoint" />
          </mxGeometry>
        </mxCell>
        <mxCell id="gwRPoFjmvg8aq_oQ4cy_-40" value="сообщение информации" style="edgeLabel;html=1;align=center;verticalAlign=middle;resizable=0;points=[];" vertex="1" connectable="0" parent="gwRPoFjmvg8aq_oQ4cy_-39">
          <mxGeometry x="0.276" y="-1" relative="1" as="geometry">
            <mxPoint x="13" y="-9" as="offset" />
          </mxGeometry>
        </mxCell>
        <mxCell id="gwRPoFjmvg8aq_oQ4cy_-41" value="" style="endArrow=classic;html=1;rounded=0;entryX=0.059;entryY=0.077;entryDx=0;entryDy=0;entryPerimeter=0;" edge="1" parent="1">
          <mxGeometry width="50" height="50" relative="1" as="geometry">
            <mxPoint x="50" y="401" as="sourcePoint" />
            <mxPoint x="172" y="400" as="targetPoint" />
          </mxGeometry>
        </mxCell>
        <mxCell id="gwRPoFjmvg8aq_oQ4cy_-42" value="выбор нужного окна и запрос на оплату" style="edgeLabel;html=1;align=center;verticalAlign=middle;resizable=0;points=[];" vertex="1" connectable="0" parent="gwRPoFjmvg8aq_oQ4cy_-41">
          <mxGeometry x="-0.0722" y="1" relative="1" as="geometry">
            <mxPoint x="3" y="-10" as="offset" />
          </mxGeometry>
        </mxCell>
        <mxCell id="gwRPoFjmvg8aq_oQ4cy_-44" value="" style="endArrow=classic;html=1;rounded=0;entryX=1;entryY=0.75;entryDx=0;entryDy=0;" edge="1" parent="1" target="gwRPoFjmvg8aq_oQ4cy_-16">
          <mxGeometry width="50" height="50" relative="1" as="geometry">
            <mxPoint x="170" y="420" as="sourcePoint" />
            <mxPoint x="402" y="420" as="targetPoint" />
          </mxGeometry>
        </mxCell>
        <mxCell id="gwRPoFjmvg8aq_oQ4cy_-45" value="генерация счета" style="edgeLabel;html=1;align=center;verticalAlign=middle;resizable=0;points=[];" vertex="1" connectable="0" parent="gwRPoFjmvg8aq_oQ4cy_-44">
          <mxGeometry x="-0.0722" y="1" relative="1" as="geometry">
            <mxPoint x="3" y="-10" as="offset" />
          </mxGeometry>
        </mxCell>
        <mxCell id="gwRPoFjmvg8aq_oQ4cy_-46" value="" style="endArrow=classic;html=1;rounded=0;exitX=0.932;exitY=0.861;exitDx=0;exitDy=0;exitPerimeter=0;entryX=0;entryY=0.5;entryDx=0;entryDy=0;" edge="1" parent="1" source="gwRPoFjmvg8aq_oQ4cy_-16" target="gwRPoFjmvg8aq_oQ4cy_-43">
          <mxGeometry width="50" height="50" relative="1" as="geometry">
            <mxPoint x="320" y="440" as="sourcePoint" />
            <mxPoint x="370" y="390" as="targetPoint" />
          </mxGeometry>
        </mxCell>
        <mxCell id="gwRPoFjmvg8aq_oQ4cy_-48" value="оплата" style="edgeLabel;html=1;align=center;verticalAlign=middle;resizable=0;points=[];" vertex="1" connectable="0" parent="gwRPoFjmvg8aq_oQ4cy_-46">
          <mxGeometry x="-0.199" y="2" relative="1" as="geometry">
            <mxPoint x="13" y="-9" as="offset" />
          </mxGeometry>
        </mxCell>
        <mxCell id="gwRPoFjmvg8aq_oQ4cy_-47" value="" style="endArrow=none;dashed=1;html=1;rounded=0;entryX=0.5;entryY=1;entryDx=0;entryDy=0;" edge="1" parent="1" target="gwRPoFjmvg8aq_oQ4cy_-43">
          <mxGeometry width="50" height="50" relative="1" as="geometry">
            <mxPoint x="1009.5" y="801.5999755859375" as="sourcePoint" />
            <mxPoint x="1009.5" y="80" as="targetPoint" />
          </mxGeometry>
        </mxCell>
        <mxCell id="gwRPoFjmvg8aq_oQ4cy_-43" value="" style="rounded=0;whiteSpace=wrap;html=1;" vertex="1" parent="1">
          <mxGeometry x="995" y="410" width="30" height="60" as="geometry" />
        </mxCell>
        <mxCell id="gwRPoFjmvg8aq_oQ4cy_-49" style="edgeStyle=none;curved=1;rounded=0;orthogonalLoop=1;jettySize=auto;html=1;fontSize=12;startSize=8;endSize=8;dashed=1;exitX=0.061;exitY=0.886;exitDx=0;exitDy=0;exitPerimeter=0;entryX=1.08;entryY=0.527;entryDx=0;entryDy=0;entryPerimeter=0;" edge="1" parent="1" source="gwRPoFjmvg8aq_oQ4cy_-43" target="gwRPoFjmvg8aq_oQ4cy_-24">
          <mxGeometry relative="1" as="geometry">
            <mxPoint x="600" y="460" as="sourcePoint" />
            <mxPoint x="190" y="463" as="targetPoint" />
          </mxGeometry>
        </mxCell>
        <mxCell id="gwRPoFjmvg8aq_oQ4cy_-50" value="уведомление об оплате" style="edgeLabel;html=1;align=center;verticalAlign=middle;resizable=0;points=[];" vertex="1" connectable="0" parent="gwRPoFjmvg8aq_oQ4cy_-49">
          <mxGeometry x="0.276" y="-1" relative="1" as="geometry">
            <mxPoint as="offset" />
          </mxGeometry>
        </mxCell>
        <mxCell id="gwRPoFjmvg8aq_oQ4cy_-52" value="" style="rounded=0;whiteSpace=wrap;html=1;" vertex="1" parent="1">
          <mxGeometry x="745" y="490" width="30" height="140" as="geometry" />
        </mxCell>
        <mxCell id="gwRPoFjmvg8aq_oQ4cy_-55" value="" style="endArrow=classic;html=1;rounded=0;exitX=1.126;exitY=0.047;exitDx=0;exitDy=0;exitPerimeter=0;entryX=0.093;entryY=0.376;entryDx=0;entryDy=0;entryPerimeter=0;" edge="1" parent="1">
          <mxGeometry width="50" height="50" relative="1" as="geometry">
            <mxPoint x="201" y="510" as="sourcePoint" />
            <mxPoint x="745" y="510" as="targetPoint" />
          </mxGeometry>
        </mxCell>
        <mxCell id="gwRPoFjmvg8aq_oQ4cy_-56" value="внесение информации о бронировании" style="edgeLabel;html=1;align=center;verticalAlign=middle;resizable=0;points=[];" vertex="1" connectable="0" parent="gwRPoFjmvg8aq_oQ4cy_-55">
          <mxGeometry x="-0.0722" y="1" relative="1" as="geometry">
            <mxPoint y="-10" as="offset" />
          </mxGeometry>
        </mxCell>
        <mxCell id="gwRPoFjmvg8aq_oQ4cy_-58" value="" style="endArrow=none;dashed=1;html=1;rounded=0;entryX=0.5;entryY=1;entryDx=0;entryDy=0;" edge="1" parent="1" target="gwRPoFjmvg8aq_oQ4cy_-57">
          <mxGeometry width="50" height="50" relative="1" as="geometry">
            <mxPoint x="560" y="801.5999755859375" as="sourcePoint" />
            <mxPoint x="560" y="190" as="targetPoint" />
          </mxGeometry>
        </mxCell>
        <mxCell id="gwRPoFjmvg8aq_oQ4cy_-57" value="" style="rounded=0;whiteSpace=wrap;html=1;" vertex="1" parent="1">
          <mxGeometry x="545" y="510" width="30" height="50" as="geometry" />
        </mxCell>
        <mxCell id="gwRPoFjmvg8aq_oQ4cy_-59" value="" style="endArrow=classic;html=1;rounded=0;exitX=0.098;exitY=0.314;exitDx=0;exitDy=0;exitPerimeter=0;" edge="1" parent="1" source="gwRPoFjmvg8aq_oQ4cy_-52" target="gwRPoFjmvg8aq_oQ4cy_-57">
          <mxGeometry width="50" height="50" relative="1" as="geometry">
            <mxPoint x="211" y="520" as="sourcePoint" />
            <mxPoint x="755" y="520" as="targetPoint" />
          </mxGeometry>
        </mxCell>
        <mxCell id="gwRPoFjmvg8aq_oQ4cy_-60" value="внесение информации о бронировании" style="edgeLabel;html=1;align=center;verticalAlign=middle;resizable=0;points=[];" vertex="1" connectable="0" parent="gwRPoFjmvg8aq_oQ4cy_-59">
          <mxGeometry x="-0.0722" y="1" relative="1" as="geometry">
            <mxPoint y="-10" as="offset" />
          </mxGeometry>
        </mxCell>
        <mxCell id="gwRPoFjmvg8aq_oQ4cy_-62" value="" style="endArrow=none;dashed=1;html=1;rounded=0;" edge="1" parent="1" source="gwRPoFjmvg8aq_oQ4cy_-65" target="gwRPoFjmvg8aq_oQ4cy_-61">
          <mxGeometry width="50" height="50" relative="1" as="geometry">
            <mxPoint x="360" y="801.5999755859375" as="sourcePoint" />
            <mxPoint x="360" y="100" as="targetPoint" />
          </mxGeometry>
        </mxCell>
        <mxCell id="gwRPoFjmvg8aq_oQ4cy_-61" value="" style="rounded=0;whiteSpace=wrap;html=1;" vertex="1" parent="1">
          <mxGeometry x="350" y="550" width="30" height="60" as="geometry" />
        </mxCell>
        <mxCell id="gwRPoFjmvg8aq_oQ4cy_-63" value="" style="endArrow=classic;html=1;rounded=0;exitX=0.167;exitY=0.671;exitDx=0;exitDy=0;exitPerimeter=0;" edge="1" parent="1" source="gwRPoFjmvg8aq_oQ4cy_-52">
          <mxGeometry width="50" height="50" relative="1" as="geometry">
            <mxPoint x="553" y="583" as="sourcePoint" />
            <mxPoint x="380" y="584" as="targetPoint" />
          </mxGeometry>
        </mxCell>
        <mxCell id="gwRPoFjmvg8aq_oQ4cy_-64" value="уведомление о новом бронировании" style="edgeLabel;html=1;align=center;verticalAlign=middle;resizable=0;points=[];" vertex="1" connectable="0" parent="gwRPoFjmvg8aq_oQ4cy_-63">
          <mxGeometry x="-0.0722" y="1" relative="1" as="geometry">
            <mxPoint y="-10" as="offset" />
          </mxGeometry>
        </mxCell>
        <mxCell id="gwRPoFjmvg8aq_oQ4cy_-66" value="" style="endArrow=none;dashed=1;html=1;rounded=0;" edge="1" parent="1" target="gwRPoFjmvg8aq_oQ4cy_-65">
          <mxGeometry width="50" height="50" relative="1" as="geometry">
            <mxPoint x="360" y="801.5999755859375" as="sourcePoint" />
            <mxPoint x="364" y="610" as="targetPoint" />
          </mxGeometry>
        </mxCell>
        <mxCell id="gwRPoFjmvg8aq_oQ4cy_-65" value="" style="rounded=0;whiteSpace=wrap;html=1;" vertex="1" parent="1">
          <mxGeometry x="350" y="640" width="30" height="60" as="geometry" />
        </mxCell>
        <mxCell id="gwRPoFjmvg8aq_oQ4cy_-67" value="" style="rounded=0;whiteSpace=wrap;html=1;" vertex="1" parent="1">
          <mxGeometry x="550" y="640" width="30" height="60" as="geometry" />
        </mxCell>
        <mxCell id="gwRPoFjmvg8aq_oQ4cy_-68" value="" style="endArrow=classic;html=1;rounded=0;exitX=1.126;exitY=0.047;exitDx=0;exitDy=0;exitPerimeter=0;" edge="1" parent="1">
          <mxGeometry width="50" height="50" relative="1" as="geometry">
            <mxPoint x="380" y="669.47" as="sourcePoint" />
            <mxPoint x="550" y="670" as="targetPoint" />
          </mxGeometry>
        </mxCell>
        <mxCell id="gwRPoFjmvg8aq_oQ4cy_-69" value="просмотр и редактирование информации о пациенте" style="edgeLabel;html=1;align=center;verticalAlign=middle;resizable=0;points=[];" vertex="1" connectable="0" parent="gwRPoFjmvg8aq_oQ4cy_-68">
          <mxGeometry x="-0.0722" y="1" relative="1" as="geometry">
            <mxPoint y="-10" as="offset" />
          </mxGeometry>
        </mxCell>
        <mxCell id="gwRPoFjmvg8aq_oQ4cy_-70" style="edgeStyle=none;curved=1;rounded=0;orthogonalLoop=1;jettySize=auto;html=1;fontSize=12;startSize=8;endSize=8;dashed=1;entryX=1.08;entryY=0.527;entryDx=0;entryDy=0;entryPerimeter=0;" edge="1" parent="1">
          <mxGeometry relative="1" as="geometry">
            <mxPoint x="180" y="464" as="sourcePoint" />
            <mxPoint x="50" y="464" as="targetPoint" />
          </mxGeometry>
        </mxCell>
        <mxCell id="gwRPoFjmvg8aq_oQ4cy_-71" value="бронирование создано" style="edgeLabel;html=1;align=center;verticalAlign=middle;resizable=0;points=[];" vertex="1" connectable="0" parent="gwRPoFjmvg8aq_oQ4cy_-70">
          <mxGeometry x="0.276" y="-1" relative="1" as="geometry">
            <mxPoint x="13" y="-13" as="offset" />
          </mxGeometry>
        </mxCell>
        <mxCell id="gwRPoFjmvg8aq_oQ4cy_-72" style="edgeStyle=none;curved=1;rounded=0;orthogonalLoop=1;jettySize=auto;html=1;fontSize=12;startSize=8;endSize=8;dashed=1;exitX=1;exitY=1;exitDx=0;exitDy=0;" edge="1" parent="1" source="gwRPoFjmvg8aq_oQ4cy_-57" target="gwRPoFjmvg8aq_oQ4cy_-52">
          <mxGeometry relative="1" as="geometry">
            <mxPoint x="855" y="560" as="sourcePoint" />
            <mxPoint x="60" y="568" as="targetPoint" />
          </mxGeometry>
        </mxCell>
        <mxCell id="gwRPoFjmvg8aq_oQ4cy_-73" value="информация обновлена" style="edgeLabel;html=1;align=center;verticalAlign=middle;resizable=0;points=[];" vertex="1" connectable="0" parent="gwRPoFjmvg8aq_oQ4cy_-72">
          <mxGeometry x="0.276" y="-1" relative="1" as="geometry">
            <mxPoint x="-13" y="-11" as="offset" />
          </mxGeometry>
        </mxCell>
        <mxCell id="gwRPoFjmvg8aq_oQ4cy_-74" style="edgeStyle=none;curved=1;rounded=0;orthogonalLoop=1;jettySize=auto;html=1;fontSize=12;startSize=8;endSize=8;dashed=1;exitX=0.07;exitY=0.903;exitDx=0;exitDy=0;exitPerimeter=0;entryX=0.991;entryY=0.889;entryDx=0;entryDy=0;entryPerimeter=0;" edge="1" parent="1" source="gwRPoFjmvg8aq_oQ4cy_-52" target="gwRPoFjmvg8aq_oQ4cy_-24">
          <mxGeometry relative="1" as="geometry">
            <mxPoint x="985" y="610" as="sourcePoint" />
            <mxPoint x="190" y="618" as="targetPoint" />
          </mxGeometry>
        </mxCell>
        <mxCell id="gwRPoFjmvg8aq_oQ4cy_-75" value="информация обновлена" style="edgeLabel;html=1;align=center;verticalAlign=middle;resizable=0;points=[];" vertex="1" connectable="0" parent="gwRPoFjmvg8aq_oQ4cy_-74">
          <mxGeometry x="0.276" y="-1" relative="1" as="geometry">
            <mxPoint as="offset" />
          </mxGeometry>
        </mxCell>
        <mxCell id="gwRPoFjmvg8aq_oQ4cy_-76" style="edgeStyle=none;curved=1;rounded=0;orthogonalLoop=1;jettySize=auto;html=1;fontSize=12;startSize=8;endSize=8;dashed=1;entryX=0.991;entryY=0.889;entryDx=0;entryDy=0;entryPerimeter=0;" edge="1" parent="1">
          <mxGeometry relative="1" as="geometry">
            <mxPoint x="550" y="690" as="sourcePoint" />
            <mxPoint x="380" y="690" as="targetPoint" />
          </mxGeometry>
        </mxCell>
        <mxCell id="gwRPoFjmvg8aq_oQ4cy_-77" value="завершение просмотра и редактирования" style="edgeLabel;html=1;align=center;verticalAlign=middle;resizable=0;points=[];" vertex="1" connectable="0" parent="gwRPoFjmvg8aq_oQ4cy_-76">
          <mxGeometry x="0.276" y="-1" relative="1" as="geometry">
            <mxPoint x="8" y="-9" as="offset" />
          </mxGeometry>
        </mxCell>
      </root>
    </mxGraphModel>
  </diagram>
</mxfile>
